<?xml version="1.0" encoding="iso-8859-1"?>
<!-- Generator: Adobe Illustrator 19.0.0, SVG Export Plug-In . SVG Version: 6.00 Build 0)  -->
<svg version="1.1" id="Capa_1" xmlns="http://www.w3.org/2000/svg" xmlns:xlink="http://www.w3.org/1999/xlink" x="0px" y="0px"
	 viewBox="0 0 512 512" style="enable-background:new 0 0 512 512;" xml:space="preserve">
<path style="fill:#F2F2F2;" d="M485.035,271.389c0,125.643-101.856,227.499-227.509,227.499S30.005,397.042,30.005,271.389
	c0-125.664,101.856-227.52,227.509-227.52S485.035,145.725,485.035,271.389"/>
<g>
	<path style="fill:#40596B;" d="M208.736,246.333c3.488-4.939,5.237-9.707,5.237-14.336c0-4.587-1.515-8.437-4.555-11.541
		c-3.008-3.083-6.901-4.629-11.648-4.629c-8.672,0-16.917,6.187-24.683,18.56l-24.683-14.624
		c6.453-10.005,13.536-17.579,21.227-22.709c7.712-5.141,17.525-7.712,29.44-7.712c11.893,0,22.379,3.787,31.392,11.371
		c9.024,7.563,13.547,17.856,13.547,30.891c0,7.104-1.813,13.92-5.44,20.437c-3.637,6.517-10.304,14.859-20.064,25.003
		l-24.875,25.877h54.517v27.627h-97.376v-22.891l40.491-41.483C199.435,257.874,205.248,251.271,208.736,246.333"/>
	<polygon style="fill:#40596B;" points="321.408,270.909 321.408,246.834 351.029,246.834 351.029,270.909 366.635,270.909 
		366.635,297.575 351.029,297.575 351.029,330.557 321.408,330.557 321.408,297.575 265.909,297.575 265.909,274.077 
		315.093,192.519 348.672,192.519 301.867,270.909 	"/>
</g>
<path style="fill:#FF7058;" d="M247.723,136.893l17.035-30.123c-63.264-35.872-140.907-22.528-188.907,27.851
	c3.403-12.192,8.256-24.224,14.773-35.755c42.347-74.88,137.131-101.312,211.893-58.912l17.035-30.123l29.984,100.896
	L247.723,136.893z"/>
<path style="fill:#FFD15C;" d="M145.952,347.122l-34.592,0.309c0.555,72.704,50.923,133.269,118.549,149.664
	c-12.256,3.125-25.109,4.939-38.336,5.067c-86.016,0.768-156.309-68.085-156.981-154.037L0,348.434l72.384-76.395L145.952,347.122z"
	/>
<path style="fill:#84DBFF;" d="M378.891,330.141l17.568,29.813c62.688-36.853,89.952-110.752,70.336-177.504
	c8.853,9.045,16.832,19.253,23.563,30.645c43.68,74.101,19.179,169.419-54.912,212.981l17.557,29.792l-102.357-24.48
	L378.891,330.141z"/>
<path style="fill:#40596B;" d="M388.939,218.535v27.019h-13.973v-69.109h13.973v24.587c4.224-4.288,8.949-6.443,14.197-6.443
	c5.248,0,9.664,1.877,13.269,5.6c3.605,3.712,5.397,8.683,5.397,14.891v30.453H407.84v-27.392c0-7.691-2.837-11.541-8.48-11.541
	c-2.795,0-5.227,1.024-7.307,3.04C389.973,211.655,388.939,214.621,388.939,218.535"/>
<g>
</g>
<g>
</g>
<g>
</g>
<g>
</g>
<g>
</g>
<g>
</g>
<g>
</g>
<g>
</g>
<g>
</g>
<g>
</g>
<g>
</g>
<g>
</g>
<g>
</g>
<g>
</g>
<g>
</g>
</svg>
