<svg id="Layer_5" enable-background="new 0 0 64 64" height="512" viewBox="0 0 64 64" width="512" xmlns="http://www.w3.org/2000/svg"><g><g><g><path d="m60 44v18h-56v-18z" fill="#d3a06c"/></g><g><path d="m10 48h44v10h-44z" fill="#e6e9ed"/></g><g><path d="m62 39v4c0 .55-.45 1-1 1h-1-56-1c-.55 0-1-.45-1-1v-4c0-.55.45-1 1-1h5 3 6 4 5 34 1c.55 0 1 .45 1 1z" fill="#b27946"/></g><g><path d="m8 38c-2.21 0-4-1.79-4-4v-5.73c0-1.9 1.34-3.54 3.21-3.92l.79-.16 2.82-.57c.45-.13.85-.35 1.18-.65v.03c0 1.66 1.34 3 3 3 .83 0 1.58-.34 2.12-.88s.88-1.29.88-2.12v-.03c.33.3.73.52 1.18.65l2.82.57.79.16c1.87.38 3.21 2.02 3.21 3.92v5.73 4h-5-4v-1c0-2.21-1.79-4-4-4h-2v5z" fill="#ff826e"/></g><g><path d="m22 14v10.19l-2.82-.57c-.45-.13-.85-.35-1.18-.65-.46-.4-.78-.95-.92-1.55v-.01c1.15-.7 1.92-1.96 1.92-3.41v-3h-1.76c-1.47 0-2.92-.34-4.24-1-1.1 0-2 .9-2 2v2c0 1.1.45 2.1 1.17 2.83.23.22.48.42.75.58v.01c-.14.6-.46 1.15-.92 1.55-.33.3-.73.52-1.18.65l-2.82.57v-10.19c0-1.94.78-3.68 2.05-4.95s3.01-2.05 4.95-2.05c3.87 0 7 3.13 7 7z" fill="#656d78"/></g><g><path d="m60 34v4h-34v-4h14 6z" fill="#ccd1d9"/></g><g><path d="m59 18-1-16h-30l-1 16-1 16h34z" fill="#e6e9ed"/></g><g><path d="m50.86 24.14c1.23.37 2.14 1.5 2.14 2.86 0 1.66-1.34 3-3 3h-14c-1.66 0-3-1.34-3-3s1.34-3 3-3c.4 0 .77.08 1.12.22.34-1.28 1.49-2.22 2.88-2.22s2.54.94 2.88 2.22c.35-.14.72-.22 1.12-.22s.77.08 1.12.22c.34-1.28 1.49-2.22 2.88-2.22 1.36 0 2.49.91 2.86 2.14z" fill="#b4dd7f"/></g><g><path d="m36 30h14c0 1.1-.45 2.1-1.17 2.83-.73.72-1.73 1.17-2.83 1.17h-6c-2.21 0-4-1.79-4-4z" fill="#969faa"/></g><g><path d="m36 14h14c0 1.1-.45 2.1-1.17 2.83-.73.72-1.73 1.17-2.83 1.17h-6c-2.21 0-4-1.79-4-4z" fill="#969faa"/></g><g><path d="m50.86 8.14c1.23.37 2.14 1.5 2.14 2.86 0 1.66-1.34 3-3 3h-14c-1.66 0-3-1.34-3-3s1.34-3 3-3c.4 0 .77.08 1.12.22.34-1.28 1.49-2.22 2.88-2.22s2.54.94 2.88 2.22c.35-.14.72-.22 1.12-.22s.77.08 1.12.22c.34-1.28 1.49-2.22 2.88-2.22 1.36 0 2.49.91 2.86 2.14z" fill="#fcd770"/></g><g><path d="m17 37v1h-6v-5h2c2.21 0 4 1.79 4 4z" fill="#f0d0b4"/></g><g><path d="m17.08 21.42c.14.6.46 1.15.92 1.55v.03c0 .83-.34 1.58-.88 2.12s-1.29.88-2.12.88c-1.66 0-3-1.34-3-3v-.03c.46-.4.78-.95.92-1.55v-.01c.61.38 1.32.59 2.08.59s1.47-.21 2.08-.59z" fill="#f0d0b4"/></g><g><path d="m19 15v3c0 1.45-.77 2.71-1.92 3.41-.61.38-1.32.59-2.08.59s-1.47-.21-2.08-.59c-.27-.16-.52-.36-.75-.58-.72-.73-1.17-1.73-1.17-2.83v-2c0-1.1.9-2 2-2 1.32.66 2.77 1 4.24 1z" fill="#f0d0b4"/></g></g><g><path d="m61 37-.002-3.063-.998-15.968v-.969h-.061l-1-16h-31.878l-.999 16h-.062v.985l-.426 6.823c-.683-.705-1.561-1.226-2.574-1.433v-9.375c0-4.411-3.589-8-8-8s-8 3.589-8 8v9.374c-2.318.474-4 2.532-4 4.898v5.728c0 1.13.391 2.162 1.026 3h-1.026c-1.103 0-2 .897-2 2v4c0 1.103.897 2 2 2v18h58v-18c1.103 0 2-.897 2-2v-4c0-1.103-.897-2-2-2zm-34 0v-2h13 6 13v2zm10.171-22h11.658c-.413 1.164-1.525 2-2.829 2h-6c-1.304 0-2.416-.836-2.829-2zm-3.171-4c0-1.103.897-2 2-2 .249 0 .499.05.742.147l1.044.42.294-1.086c.236-.872 1.026-1.481 1.92-1.481s1.684.609 1.92 1.481l.294 1.086 1.044-.42c.486-.195.998-.195 1.484 0l1.044.42.294-1.086c.236-.872 1.026-1.481 1.92-1.481.881 0 1.646.574 1.901 1.429l.155.515.515.155c.855.255 1.429 1.02 1.429 1.901 0 1.103-.897 2-2 2h-14c-1.103 0-2-.897-2-2zm6 8h6 12.062l.876 14h-8.963c.464-.613.794-1.328.936-2.114 1.766-.415 3.089-1.994 3.089-3.886 0-1.596-.931-2.999-2.364-3.636-.637-1.433-2.04-2.364-3.636-2.364-1.457 0-2.775.802-3.472 2.036-.35-.049-.707-.049-1.057 0-.696-1.234-2.014-2.036-3.471-2.036s-2.775.802-3.472 2.036c-.174-.024-.351-.036-.528-.036-2.206 0-4 1.794-4 4 0 1.892 1.323 3.471 3.09 3.886.142.786.472 1.501.936 2.114h-8.961l.875-14zm-2.829 12h11.658c-.413 1.164-1.525 2-2.829 2h-6c-1.304 0-2.416-.836-2.829-2zm-3.171-4c0-1.103.897-2 2-2 .249 0 .499.05.742.147l1.044.42.294-1.086c.236-.872 1.026-1.481 1.92-1.481s1.684.609 1.92 1.481l.294 1.086 1.044-.42c.486-.195.998-.195 1.484 0l1.044.42.294-1.086c.236-.872 1.026-1.481 1.92-1.481.881 0 1.646.574 1.901 1.429l.155.515.515.155c.855.255 1.429 1.02 1.429 1.901 0 1.103-.897 2-2 2h-14c-1.103 0-2-.897-2-2zm-5.061-24h28.121l.876 14h-7.962c.464-.613.794-1.328.936-2.114 1.767-.415 3.09-1.994 3.09-3.886 0-1.596-.931-2.999-2.364-3.636-.637-1.433-2.04-2.364-3.636-2.364-1.457 0-2.775.802-3.472 2.036-.35-.049-.707-.049-1.057 0-.696-1.234-2.014-2.036-3.471-2.036s-2.775.802-3.472 2.036c-.174-.024-.351-.036-.528-.036-2.206 0-4 1.794-4 4 0 1.892 1.323 3.471 3.09 3.886.142.786.472 1.501.936 2.114h-7.961zm-13.939 5c3.309 0 6 2.691 6 6v8.972l-1.549-.311c-.502-.144-.914-.48-1.171-.918 1.045-.917 1.72-2.246 1.72-3.743v-4h-2.764c-1.308 0-2.618-.31-3.789-.895l-.211-.105h-.236c-1.654 0-3 1.346-3 3v2c0 1.497.675 2.827 1.721 3.744-.252.436-.649.768-1.094.897l-1.627.329v-8.97c0-3.309 2.691-6 6-6zm3 10c0 1.654-1.346 3-3 3s-3-1.346-3-3v-2c0-.486.349-.893.81-.981 1.38.642 2.905.981 4.426.981h.764zm-4.54 4.732c.488.16.999.268 1.54.268s1.053-.108 1.541-.268c.123.211.266.408.426.593-.156.947-.976 1.675-1.967 1.675-.989 0-1.808-.724-1.967-1.669.16-.186.304-.385.427-.599zm-8.46 11.268v-5.728c0-1.422 1.012-2.659 2.405-2.94l3.694-.749c.069-.02.134-.049.201-.073.598 1.459 2.029 2.49 3.7 2.49 1.67 0 3.1-1.029 3.698-2.497.093.034.184.072.28.1l3.615.729c1.395.281 2.407 1.519 2.407 2.94v5.728 3h-3v-9h-2v9h-2c0-2.757-2.243-5-5-5h-3v-4h-2v4.219c-.591.195-1.142.509-1.586.953l-.121.121 1.414 1.414.121-.121c.372-.372.888-.586 1.414-.586h.758v3h-2c-1.654 0-3-1.346-3-3zm8 0c1.654 0 3 1.346 3 3h-4v-3zm46 27h-54v-16h54zm-56-18v-4h5 10 43l.002 4z"/><path d="m55 59v-12h-46v12zm-44-10h42v8h-42z"/></g></g></svg>