<svg id="filled_outline" enable-background="new 0 0 512 512" height="512" viewBox="0 0 512 512" width="512" xmlns="http://www.w3.org/2000/svg"><path d="m344 120h160v128h-160z" fill="#ded7cb"/><path d="m344 120h48v128h-48z" fill="#c1b49a"/><path d="m320 504h-16l-48-72-48 72h-16l16-88v-16h96v16z" fill="#00587e"/><path d="m336 248v32l-32 72v48h-96v-48l-32-72v-32l64 72h32z" fill="#aedef8"/><path d="m248 320-4.8621521-24.31073c-1.6233063-8.1166076 4.5847931-15.68927 12.8621368-15.68927h.0000458c8.2773132 0 14.4854431 7.5726624 12.8621216 15.68927l-4.8621521 24.31073z" fill="#feea01"/><path d="m256 320-16 56 16 24 16-24z" fill="#00a8e7"/><path d="m480 504h-16l-48-72-48 72h-16l16-88v-16h96v16z" fill="#00587e"/><path d="m504 248v32l-40 72v48h-96v-48l-32-72v-32l64 72h32z" fill="#aedef8"/><path d="m424 320 4.8621521-24.31073c1.6233215-8.1166076-4.5848083-15.68927-12.8621216-15.68927h-.000061c-8.2773132 0-14.4854431 7.5726624-12.8621216 15.68927l4.8621521 24.31073z" fill="#feea01"/><path d="m416 320 16 56-16 24-16-24z" fill="#00a8e7"/><path d="m160 504h-16l-48-72-48 72h-16l16-88v-16h96v16z" fill="#00587e"/><path d="m176 248v32l-32 72v48h-96v-48l-40-72v-32l72 72h32z" fill="#aedef8"/><path d="m88 320-4.8621445-24.31073c-1.6233215-8.1166076 4.5847855-15.68927 12.8621292-15.68927h.0000305c8.2773438 0 14.4854507 7.5726624 12.8621292 15.68927l-4.8621444 24.31073z" fill="#feea01"/><path d="m96 320-16 56 16 24 16-24z" fill="#00a8e7"/><path d="m168 8h176v240h-176z" fill="#eae7e4"/><path d="m8 120h160v128h-160z" fill="#ded7cb"/><g fill="#00a8e7"><path d="m208 40h32v32h-32z"/><path d="m272 40h32v32h-32z"/><path d="m8 168h32v32h-32z"/><path d="m72 168h32v32h-32z"/><path d="m136 168h32v32h-32z"/><path d="m472 176h32v32h-32z" transform="matrix(-1 0 0 -1 976 384)"/><path d="m408 176h32v32h-32z" transform="matrix(-1 0 0 -1 848 384)"/><path d="m344 176h32v32h-32z" transform="matrix(-1 0 0 -1 720 384)"/><path d="m208 104h32v32h-32z"/><path d="m272 104h32v32h-32z"/><path d="m232 168h48v80h-48z"/></g><path d="m208 80h32c4.4179688 0 8-3.5820313 8-8v-32c0-4.4179688-3.5820313-8-8-8h-32c-4.4179688 0-8 3.5820313-8 8v32c0 4.4179688 3.5820313 8 8 8zm8-32h16v16h-16z"/><path d="m272 80h32c4.4179688 0 8-3.5820313 8-8v-32c0-4.4179688-3.5820313-8-8-8h-32c-4.4179688 0-8 3.5820313-8 8v32c0 4.4179688 3.5820313 8 8 8zm8-32h16v16h-16z"/><path d="m72 208h32c4.4179688 0 8-3.5820313 8-8v-32c0-4.4179688-3.5820313-8-8-8h-32c-4.4179688 0-8 3.5820313-8 8v32c0 4.4179688 3.5820313 8 8 8zm8-32h16v16h-16z"/><path d="m504 112h-152v-104c0-4.4179688-3.5820313-8-8-8h-176c-4.4179688 0-8 3.5820313-8 8v104h-152c-4.4179688 0-8 3.5820313-8 8v128 32c0 1.359375.3466797 2.6962891 1.0068359 3.8847656l38.9931641 70.1884766v61.2050781l-15.8710938 87.2910156c-.4238281 2.3339844.2089844 4.7353516 1.7294922 6.5566406 1.5195313 1.8212891 3.7695313 2.8740235 6.1416016 2.8740235h16c2.6748047 0 5.1728516-1.3369141 6.65625-3.5625l41.34375-62.015625 41.34375 62.015625c1.4833984 2.2255859 3.9814453 3.5625 6.65625 3.5625h16c2.3720703 0 4.6220703-1.0527344 6.1416016-2.8740234 1.5205078-1.8212891 2.1533203-4.2226563 1.7294922-6.5566406l-15.8710938-87.2910157v-61.5810547l24-53.9995117 24 53.9995117v61.5810547l-15.8710938 87.2910156c-.4238281 2.3339844.2089844 4.7353516 1.7294922 6.5566406 1.5195313 1.8212891 3.7695313 2.8740235 6.1416016 2.8740235h16c2.6748047 0 5.1728516-1.3369141 6.65625-3.5625l41.34375-62.015625 41.34375 62.015625c1.4833984 2.2255859 3.9814453 3.5625 6.65625 3.5625h16c2.3720703 0 4.6220703-1.0527344 6.1416016-2.8740234 1.5205078-1.8212891 2.1533203-4.2226563 1.7294922-6.5566406l-15.8710938-87.2910157v-61.5810547l24-53.9995117 24 53.9995117v61.5810547l-15.8710938 87.2910156c-.4238281 2.3339844.2089844 4.7353516 1.7294922 6.5566406 1.5195313 1.8212891 3.7695313 2.8740235 6.1416016 2.8740235h16c2.6748047 0 5.1728516-1.3369141 6.65625-3.5625l41.34375-62.015625 41.34375 62.015625c1.4833984 2.2255859 3.9814453 3.5625 6.65625 3.5625h16c2.3720703 0 4.6220703-1.0527344 6.1416016-2.8740234 1.5205078-1.8212891 2.1533203-4.2226563 1.7294922-6.5566406l-15.8710938-87.2910157v-61.2050781l38.9931641-70.1884766c.6601562-1.1884765 1.0068359-2.5253906 1.0068359-3.8847656v-32-128c0-4.4179687-3.5820312-8-8-8zm-93.0175781 182.1210938c-.4130859-2.0673828.4873047-3.5488281 1.0605469-4.2480469.5732421-.7001953 1.8496093-1.8730469 3.9570312-1.8730469s3.3837891 1.1728516 3.9570313 1.8730469c.5732422.6992188 1.4736328 2.1806641 1.0605469 4.2470703l-3.5761719 17.8798828h-2.8828125zm12.3085937 80.5195312-7.2910156 10.9375-7.2910156-10.9375 7.2910156-25.5205078zm9.0390625-94.9121094c-4.0263672-4.9111328-9.9785156-7.7285156-16.3300781-7.7285156s-12.3037109 2.8173828-16.3300781 7.7285156c-4.0273438 4.9121094-5.6220703 11.3007813-4.3769531 17.5302734l1.3945313 6.9729004-42.8728028-48.2316894h130.8710937l-49.6591797 49.659668 1.6804199-8.4018555c1.2451172-6.2285156-.3496093-12.6171875-4.3769531-17.5292969zm-181.3476562 14.3925782c-.4130859-2.0673828.4873047-3.5488281 1.0605469-4.2480469.5732421-.7001953 1.8496093-1.8730469 3.9570312-1.8730469s3.3837891 1.1728516 3.9570313 1.8730469c.5732422.6992188 1.4736328 2.1806641 1.0605469 4.2470703l-3.5761719 17.8798828h-2.8828125zm12.3085937 80.5195312-7.2910156 10.9375-7.2910156-10.9375 7.2910156-25.5205078zm9.0390625-94.9121094c-4.0263672-4.9111328-9.9785156-7.7285156-16.3300781-7.7285156s-12.3037109 2.8173828-16.3300781 7.7285156c-4.0273438 4.9121094-5.6220703 11.3007813-4.3769531 17.5302734l1.3945313 6.9729004-42.8728028-48.2316894h124.3706055l-42.8730469 48.2319336 1.3947754-6.9741211c1.2451171-6.2285156-.3496094-12.6171875-4.3769532-17.5292969zm-181.3476562 14.3925782c-.4130859-2.0673828.4873047-3.5488281 1.0605469-4.2480469.5732421-.7001953 1.8496093-1.8730469 3.9570312-1.8730469s3.3837891 1.1728516 3.9570313 1.8730469c.5732422.6992188 1.4736328 2.1806641 1.0605469 4.2470703l-3.5761719 17.8798828h-2.8828125zm12.3085937 80.5195312-7.2910156 10.9375-7.2910156-10.9375 7.2910156-25.5205078zm9.0390625-94.9121094c-4.0263672-4.9111328-9.9785156-7.7285156-16.3300781-7.7285156s-12.3037109 2.8173828-16.3300781 7.7285156c-4.0273438 4.9121094-5.6220703 11.3007813-4.3769531 17.5302734l1.6801758 8.4008789-49.6589356-49.6596679h130.8710938l-42.8730469 48.2319336 1.3947754-6.9741211c1.2451171-6.2285156-.3496094-12.6171875-4.3769532-17.5292969zm47.6699219-87.7285156h-16v-16h16zm112 48h-32v-64h32zm224-48h-16v-16h16zm0-64v32h-24c-4.4179688 0-8 3.5820313-8 8v32c0 4.4179688 3.5820313 8 8 8h24v32h-144v-32h24c4.4179688 0 8-3.5820313 8-8v-32c0-4.4179688-3.5820313-8-8-8h-24v-32zm-144 64v-16h16v16zm-176-176h160v224h-48v-72c0-4.4179688-3.5820313-8-8-8h-48c-4.4179688 0-8 3.5820313-8 8v72h-48zm-16 112v32h-24c-4.4179688 0-8 3.5820313-8 8v32c0 4.4179688 3.5820313 8 8 8h24v32h-144v-32h24c4.4179688 0 8-3.5820313 8-8v-32c0-4.4179688-3.5820313-8-8-8h-24v-32zm-144 64v-16h16v16zm0 85.9267578v-10.6132813l58.3427734 58.34375c1.5009766 1.5000001 3.5351563 2.3427735 5.6572266 2.3427735h5.3937988l-13.0861816 45.8017578c-.6445313 2.2568359-.265625 4.6826172 1.0361328 6.6357422l7.708252 11.5625h-25.052002v-40c0-1.359375-.3466797-2.6962891-1.0068359-3.8847656zm132.28125 218.0732422-45.625-68.4375c-1.4833984-2.2255859-3.9814453-3.5625-6.65625-3.5625s-5.1728516 1.3369141-6.65625 3.5625l-45.625 68.4375h-2.1328125l14.2851563-78.5693359c.0859375-.4716797.1289062-.9511719.1289062-1.4306641v-8h80v8c0 .4794922.0429688.9589844.1289063 1.4306641l14.2851562 78.5693359zm-11.5917969-147.2490234c-.4541015 1.0224609-.6894531 2.1298828-.6894531 3.2490234v40h-25.052002l7.708252-11.5625c1.3017578-1.953125 1.6806641-4.3789063 1.0361328-6.6357422l-13.0861816-45.8017578h5.3937988c2.2851563 0 4.4609375-.9775391 5.9794922-2.6855469l50.0205078-56.2724609v9.2607422zm47.3105469-70.4482422v-9.2607422l50.0205078 56.2724609c1.5185547 1.7080078 3.694336 2.6855469 5.9794922 2.6855469h5.3937988l-13.0861816 45.8017578c-.6445313 2.2568359-.265625 4.6826172 1.0361328 6.6357422l7.708252 11.5625h-25.052002v-40c0-1.1191406-.2353516-2.2265625-.6894531-3.2490234zm124.28125 217.6972656-45.625-68.4375c-1.4833984-2.2255859-3.9814453-3.5625-6.65625-3.5625s-5.1728516 1.3369141-6.65625 3.5625l-45.625 68.4375h-2.1328125l14.2851563-78.5693359c.0859375-.4716797.1289062-.9511719.1289062-1.4306641v-8h80v8c0 .4794922.0429688.9589844.1289063 1.4306641l14.2851562 78.5693359zm-11.5917969-147.2490234c-.4541015 1.0224609-.6894531 2.1298828-.6894531 3.2490234v40h-25.052002l7.708252-11.5625c1.3017578-1.953125 1.6806641-4.3789063 1.0361328-6.6357422l-13.0861816-45.8017578h5.3937988c2.2851563 0 4.4609375-.9775391 5.9794922-2.6855469l50.0205078-56.2724609v9.2607422zm47.3105469-70.4482422v-9.2607422l50.0205078 56.2724609c1.5185547 1.7080078 3.694336 2.6855469 5.9794922 2.6855469h5.3937988l-13.0861816 45.8017578c-.6445313 2.2568359-.265625 4.6826172 1.0361328 6.6357422l7.708252 11.5625h-25.052002v-40c0-1.1191406-.2353516-2.2265625-.6894531-3.2490234zm124.28125 217.6972656-45.625-68.4375c-1.4833984-2.2255859-3.9814453-3.5625-6.65625-3.5625s-5.1728516 1.3369141-6.65625 3.5625l-45.625 68.4375h-2.1328125l14.2851563-78.5693359c.0859375-.4716797.1289062-.9511719.1289062-1.4306641v-8h80v8c0 .4794922.0429688.9589844.1289063 1.4306641l14.2851562 78.5693359zm27.71875-218.0732422-38.9931641 70.1884766c-.6601562 1.1884765-1.0068359 2.5253906-1.0068359 3.8847656v40h-25.052002l7.708252-11.5625c1.3017578-1.953125 1.6806641-4.3789063 1.0361328-6.6357422l-13.0861816-45.8017578h5.3937988c2.1220703 0 4.15625-.8427734 5.6572266-2.3427734l58.3427734-58.34375z"/><path d="m408 208h32c4.4179688 0 8-3.5820313 8-8v-32c0-4.4179688-3.5820313-8-8-8h-32c-4.4179688 0-8 3.5820313-8 8v32c0 4.4179688 3.5820313 8 8 8zm8-32h16v16h-16z"/><path d="m240 144c4.4179688 0 8-3.5820313 8-8v-32c0-4.4179688-3.5820313-8-8-8h-32c-4.4179688 0-8 3.5820313-8 8v32c0 4.4179688 3.5820313 8 8 8zm-24-32h16v16h-16z"/><path d="m272 144h32c4.4179688 0 8-3.5820313 8-8v-32c0-4.4179688-3.5820313-8-8-8h-32c-4.4179688 0-8 3.5820313-8 8v32c0 4.4179688 3.5820313 8 8 8zm8-32h16v16h-16z"/></svg>