<svg id="Capa_1" enable-background="new 0 0 512 512" height="512" viewBox="0 0 512 512" width="512" xmlns="http://www.w3.org/2000/svg"><g><g><g><g><ellipse cx="51.2" cy="378.729" fill="#f5dfbb" rx="35.93" ry="35.93" transform="matrix(.145 -.99 .99 .145 -330.952 374.578)"/><path d="m51.2 342.799v71.86c19.843 0 35.93-16.086 35.93-35.93 0-19.843-16.086-35.93-35.93-35.93z" fill="#edbdab"/></g><g><path d="m91.555 512h-80.71c-5.99 0-10.845-4.855-10.845-10.845v-35.296c0-28.277 22.923-51.2 51.2-51.2 28.277 0 51.2 22.923 51.2 51.2v35.296c0 5.99-4.855 10.845-10.845 10.845z" fill="#91d3aa"/><path d="m51.2 414.659v97.341h40.355c5.99 0 10.845-4.855 10.845-10.845v-35.296c0-28.277-22.923-51.2-51.2-51.2z" fill="#64a693"/></g></g><g><g><ellipse cx="460.8" cy="378.729" fill="#f5dfbb" rx="35.93" ry="35.93" transform="matrix(.924 -.383 .383 .924 -109.857 205.17)"/><path d="m460.8 342.8v71.86c19.844 0 35.93-16.086 35.93-35.93s-16.086-35.93-35.93-35.93z" fill="#edbdab"/></g><g><path d="m501.155 512h-80.71c-5.99 0-10.845-4.856-10.845-10.845v-35.296c0-28.277 22.923-51.2 51.2-51.2 28.277 0 51.2 22.923 51.2 51.2v35.296c0 5.99-4.855 10.845-10.845 10.845z" fill="#91d3aa"/><path d="m460.8 414.659v97.341h40.355c5.99 0 10.845-4.855 10.845-10.845v-35.296c0-28.277-22.923-51.2-51.2-51.2z" fill="#64a693"/></g></g><g><g><ellipse cx="358.4" cy="378.729" fill="#f5dfbb" rx="35.93" ry="35.93" transform="matrix(.16 -.987 .987 .16 -72.848 671.836)"/><path d="m358.4 342.799v71.86c19.844 0 35.93-16.086 35.93-35.93 0-19.843-16.086-35.93-35.93-35.93z" fill="#edbdab"/></g><g><path d="m398.755 512h-80.71c-5.99 0-10.845-4.855-10.845-10.845v-35.296c0-28.277 22.923-51.2 51.2-51.2 28.277 0 51.2 22.923 51.2 51.2v35.296c0 5.99-4.855 10.845-10.845 10.845z" fill="#457899"/><path d="m358.4 414.659v97.341h40.355c5.99 0 10.845-4.855 10.845-10.845v-35.296c0-28.277-22.923-51.2-51.2-51.2z" fill="#2b495d"/></g></g><g><g><ellipse cx="153.6" cy="378.729" fill="#f5dfbb" rx="35.93" ry="35.93" transform="matrix(.143 -.99 .99 .143 -243.168 476.73)"/><path d="m153.6 342.799v71.86c19.843 0 35.93-16.086 35.93-35.93 0-19.843-16.086-35.93-35.93-35.93z" fill="#edbdab"/></g><g><path d="m193.955 512h-80.71c-5.989 0-10.845-4.855-10.845-10.845v-35.296c0-28.277 22.923-51.2 51.2-51.2 28.277 0 51.2 22.923 51.2 51.2v35.296c0 5.99-4.855 10.845-10.845 10.845z" fill="#457899"/><path d="m153.6 414.659v97.341h40.355c5.99 0 10.845-4.855 10.845-10.845v-35.296c0-28.277-22.923-51.2-51.2-51.2z" fill="#2b495d"/></g></g><g><g><ellipse cx="256" cy="378.729" fill="#f5dfbb" rx="35.93" ry="35.93" transform="matrix(.141 -.99 .99 .141 -154.97 578.919)"/><path d="m256 342.799v71.86c19.843 0 35.93-16.086 35.93-35.93 0-19.843-16.086-35.93-35.93-35.93z" fill="#edbdab"/></g><g><path d="m296.355 512h-80.71c-5.99 0-10.845-4.855-10.845-10.845v-35.296c0-28.277 22.923-51.2 51.2-51.2 28.277 0 51.2 22.923 51.2 51.2v35.296c0 5.99-4.855 10.845-10.845 10.845z" fill="#91d3aa"/><path d="m256 414.659v97.341h40.355c5.989 0 10.845-4.855 10.845-10.845v-35.296c0-28.277-22.923-51.2-51.2-51.2z" fill="#64a693"/></g></g></g><g><g><path d="m402.791 284.25h-293.582c-5.359 0-10.311-2.859-12.99-7.5-2.68-4.641-2.68-10.359 0-15l146.791-254.25c2.679-4.641 7.631-7.5 12.99-7.5s10.31 2.859 12.99 7.5l146.791 254.25c2.68 4.641 2.68 10.359 0 15-2.679 4.641-7.631 7.5-12.99 7.5z" fill="#e69022"/><path d="m415.781 261.75-146.791-254.25c-2.679-4.641-7.631-7.5-12.99-7.5v284.25h146.791c5.359 0 10.311-2.859 12.99-7.5 2.68-4.642 2.68-10.359 0-15z" fill="#de6e48"/></g><g><g><path d="m135.413 253.549 120.587-207.849 120.588 207.849z" fill="#f5d944"/><path d="m256 45.7v207.849h120.587z" fill="#edbe2c"/></g><g><g><path d="m256 175.587c-8.284 0-15-6.716-15-15v-35.587c0-8.284 6.716-15 15-15s15 6.716 15 15v35.587c0 8.284-6.716 15-15 15z" fill="#e69022"/><path d="m256 110v65.587c8.284 0 15-6.716 15-15v-35.587c0-8.284-6.716-15-15-15z" fill="#de6e48"/></g><g><path d="m256 234.33c-6.287 0-11.978-4.047-14.115-9.943-2.134-5.888-.23-12.682 4.605-16.648 4.864-3.989 11.818-4.458 17.217-1.27 5.379 3.176 8.235 9.69 7.004 15.8-1.396 6.924-7.646 12.061-14.711 12.061z" fill="#e69022"/><path d="m263.706 206.47c-2.372-1.4-5.043-2.094-7.706-2.095v29.955c7.065 0 13.315-5.137 14.71-12.06 1.231-6.11-1.625-12.624-7.004-15.8z" fill="#de6e48"/></g></g></g></g></g></svg>