<svg height="512" viewBox="0 0 64 64" width="512" xmlns="http://www.w3.org/2000/svg"><g id="Conference-Work-Freelace-Man-Computer"><path d="m58 59v2h-18l4-4 8 1.14z" fill="#ffc477"/><path d="m58 54v5l-6-.86v-4.14z" fill="#ffc477"/><path d="m52 54v4.14l-8-1.14-4 4h-5v-7h1a2.006 2.006 0 0 0 2-2v-7h5a4 4 0 0 0 8 0h3a4 4 0 0 1 4 4v5z" fill="#91dc5a"/><path d="m56 31a2.006 2.006 0 0 1 2 2 2.015 2.015 0 0 1 -2 2h-1.01l-.07-.01a5.365 5.365 0 0 0 .08-.99v-3z" fill="#ffc477"/><path d="m55 32v2a5.365 5.365 0 0 1 -.08.99 6.978 6.978 0 0 1 -4.92 5.72 6.908 6.908 0 0 1 -2 .29h-2a6.908 6.908 0 0 1 -2-.29 7 7 0 0 1 -5-6.71v-2s2.1-.1 5-3v3s4.83-.38 7-4c0 0 3.24 1.1 4 4z" fill="#ffc477"/><path d="m55 31v1c-.76-2.9-4-4-4-4-2.17 3.62-7 4-7 4v-3c-2.9 2.9-5 3-5 3v-2a7 7 0 0 1 7-7h2a7 7 0 0 1 7 7z" fill="#ffd422"/><path d="m50 45h1a4 4 0 1 1 -8 0h1v-4.29a6.908 6.908 0 0 0 2 .29h2a6.908 6.908 0 0 0 2-.29z" fill="#ffc477"/><path d="m38 45v7a2.006 2.006 0 0 1 -2 2h-11.83l.83-5h-6l-.83 5h-10.17a2.006 2.006 0 0 1 -2-2v-16a2.006 2.006 0 0 1 2-2h28a2.006 2.006 0 0 1 2 2z" fill="#c6c5ca"/><path d="m29 5v17a2.006 2.006 0 0 1 -2 2h-16l.01 4-3.94-4h-2.07a2.006 2.006 0 0 1 -2-2v-17a2.006 2.006 0 0 1 2-2h22a2.006 2.006 0 0 1 2 2zm-4 13v-9l-4 2v5zm-7-2v-5a2.006 2.006 0 0 0 -2-2h-7a2.006 2.006 0 0 0 -2 2v5a2.006 2.006 0 0 0 2 2h7a2.006 2.006 0 0 0 2-2z" fill="#bdfdff"/><path d="m25 49-.83 5-1.17 7h-6l1.17-7 .83-5z" fill="#898890"/><rect fill="#898890" height="9" rx="2" width="11" x="7" y="9"/><path d="m55 58.6 3 .4v2h-3v-2z" fill="#ffa733"/><path d="m58 54v5l-3-.4v-4.6z" fill="#ffa733"/><path d="m58 49v5h-3v-5a4 4 0 0 0 -4-4h3a4 4 0 0 1 4 4z" fill="#5eac24"/><path d="m55 32v2a5.365 5.365 0 0 1 -.08.99 6.978 6.978 0 0 1 -4.92 5.72 6.908 6.908 0 0 1 -2 .29h-2a6.632 6.632 0 0 1 -1-.07 6.587 6.587 0 0 0 1-.22 6.978 6.978 0 0 0 4.92-5.72 5.365 5.365 0 0 0 .08-.99v-2a5.069 5.069 0 0 0 -1.4-2.34 6.526 6.526 0 0 0 1.4-1.66s3.24 1.1 4 4z" fill="#ffa733"/><path d="m55 30v2c-.76-2.9-4-4-4-4a2.112 2.112 0 0 1 -.21.31 6.957 6.957 0 0 0 -5.79-5.23 5.474 5.474 0 0 1 1-.08h2a7 7 0 0 1 7 7z" fill="#ebbf00"/><path d="m38 36v16a2.006 2.006 0 0 1 -2 2h-4a2.006 2.006 0 0 0 2-2v-16a2.006 2.006 0 0 0 -2-2h4a2.006 2.006 0 0 1 2 2z" fill="#acabb1"/><path d="m29 5v17a2.006 2.006 0 0 1 -2 2h-6a2.006 2.006 0 0 0 2-2v-17a2.006 2.006 0 0 0 -2-2h6a2.006 2.006 0 0 1 2 2z" fill="#00e7f0"/><path d="m25 49-.83 5-1.17 7h-3l1.17-7 .83-5z" fill="#787680"/><path d="m25 9v9l-4-2v-5z" fill="#c6c5ca"/><path d="m25 9v9l-2-1v-7z" fill="#acabb1"/><path d="m16 8h-7a3.009 3.009 0 0 0 -3 3v5a3.009 3.009 0 0 0 3 3h7a3.009 3.009 0 0 0 3-3v-5a3.009 3.009 0 0 0 -3-3zm1 8a1 1 0 0 1 -1 1h-7a1 1 0 0 1 -1-1v-5a1 1 0 0 1 1-1h7a1 1 0 0 1 1 1z"/><path d="m27 2h-22a3.009 3.009 0 0 0 -3 3v17a3.009 3.009 0 0 0 3 3h1.65l3.65 3.7a.976.976 0 0 0 .71.3.838.838 0 0 0 .38-.08.987.987 0 0 0 .62-.92l-.01-3h15a3.009 3.009 0 0 0 3-3v-17a3.009 3.009 0 0 0 -3-3zm1 20a1 1 0 0 1 -1 1h-16a1.033 1.033 0 0 0 -.71.29 1.007 1.007 0 0 0 -.29.71v1.55l-2.22-2.25a1 1 0 0 0 -.71-.3h-2.07a1 1 0 0 1 -1-1v-17a1 1 0 0 1 1-1h22a1 1 0 0 1 1 1z"/><path d="m26 9v9a.984.984 0 0 1 -.53.88.977.977 0 0 1 -1.02-.05l-3-2a1 1 0 0 1 1.1-1.66l1.45.96v-5.26l-1.45.96a1 1 0 0 1 -1.1-1.66l3-2a.963.963 0 0 1 1.02-.05.984.984 0 0 1 .53.88z"/><path d="m61 60h-2v-11a5 5 0 0 0 -5-5h-3v-2.59a8.037 8.037 0 0 0 4.74-5.41h.26a3 3 0 0 0 3-3 3.009 3.009 0 0 0 -3-3 8.011 8.011 0 0 0 -8-8h-2a8.011 8.011 0 0 0 -8 8v3.78a2.974 2.974 0 0 0 -2-.78h-28a3.009 3.009 0 0 0 -3 3v16a3.009 3.009 0 0 0 3 3h8.99l-.84 5h-13.15a1 1 0 0 0 0 2h58a1 1 0 0 0 0-2zm-5-28a1 1 0 0 1 1 1 .949.949 0 0 1 -.31.71.928.928 0 0 1 -.69.29zm-16-2a6 6 0 0 1 6-6h2a6.016 6.016 0 0 1 5.8 4.49 8.829 8.829 0 0 0 -2.48-1.44 1 1 0 0 0 -1.18.44 8.1 8.1 0 0 1 -5.14 3.33v-1.82a.987.987 0 0 0 -.62-.92 1 1 0 0 0 -1.09.21 10.9 10.9 0 0 1 -3.29 2.38zm0 2.8a9.632 9.632 0 0 0 3-1.6v.8a1.007 1.007 0 0 0 .32.73.977.977 0 0 0 .68.27h.08c.2-.02 4.72-.41 7.27-3.75a5.193 5.193 0 0 1 2.65 2.91v1.84a6 6 0 0 1 -6 6h-2a6 6 0 0 1 -6-6zm9.83 13.17a2.988 2.988 0 0 1 -5.66 0 1 1 0 0 0 .83-.97v-3.07a8.258 8.258 0 0 0 1 .07h2a8.258 8.258 0 0 0 1-.07v3.07a1 1 0 0 0 .83.97zm-10.83-8.11a8.013 8.013 0 0 0 4 3.55v2.59h-4zm-21.68 15.14h-9.32a1 1 0 0 1 -1-1v-16a1 1 0 0 1 1-1h28a1 1 0 0 1 1 1v16a1 1 0 0 1 -1 1h-10.65l.64-3.84a1 1 0 0 0 -.99-1.16h-6a1 1 0 0 0 -.99.84zm4.83 7h-3.97l1.67-10h3.97zm11.85 0h-9.82l.83-5h8.99zm23 0h-14.59l1.94-1.94 12.65 1.81zm0-2.15-4-.57v-2.28h4zm0-4.85h-4a1 1 0 0 0 -2 0v3.99l-6.86-.98a1.033 1.033 0 0 0 -.85.28l-3.7 3.71h-3.59v-5a3.009 3.009 0 0 0 3-3v-6h3.1a5 5 0 0 0 9.8 0h2.1a3.009 3.009 0 0 1 3 3z"/><path d="m14 37h-2a1 1 0 0 0 0 2h2a1 1 0 0 0 0-2z"/><path d="m21 38a1 1 0 0 0 -1-1h-2a1 1 0 0 0 0 2h2a1 1 0 0 0 1-1z"/><path d="m24 39h2a1 1 0 0 0 0-2h-2a1 1 0 0 0 0 2z"/><path d="m30 39h2a1 1 0 0 0 0-2h-2a1 1 0 0 0 0 2z"/></g></svg>