<svg height="512" viewBox="0 0 128 128" width="512" xmlns="http://www.w3.org/2000/svg"><g><path d="m79.819 84.667c-.09-.1-.183-.2-.269-.314a7.729 7.729 0 0 1 -.685-1.054 6.741 6.741 0 0 1 -.769-2.332l-1.096-8.576a21.855 21.855 0 0 1 -26 0l-1.1 8.576a6.886 6.886 0 0 1 -1.489 3.373c-.111.138-.251.259-.375.39l15.833 9.02z" fill="#fec478"/><path d="m87.371 23.833a64 64 0 0 1 -48.393 7.767v8.964a22.226 22.226 0 0 0 .5 4.674l1.509 6.891c.788 3.611 1.317 7.465 2.71 10.9a21.929 21.929 0 0 0 40.606 0c1.393-3.437 1.922-7.291 2.709-10.9l1.51-6.891c.331-1.538.5-3.106.5-11.68v-10.743z" fill="#fedbab"/><path d="m39.481 45.242a21.9 21.9 0 0 1 -.505-4.677v-1.307a6.9 6.9 0 0 0 -.926-.07 6.81 6.81 0 1 0 2.935 12.947z" fill="#fec478"/><g fill="#6e6e6e"><path d="m64.25 53.4h1.957a1.75 1.75 0 0 0 0-3.5h-1.877l.7-4.608a1.75 1.75 0 1 0 -3.461-.524l-.71 4.687a3.431 3.431 0 0 0 3.391 3.945z"/><path d="m57.167 40.417a4.167 4.167 0 1 0 -4.167 4.166 4.171 4.171 0 0 0 4.167-4.166z"/><path d="m75 36.25a4.167 4.167 0 1 0 4.167 4.167 4.171 4.171 0 0 0 -4.167-4.167z"/><path d="m69.2 57.931a6.987 6.987 0 0 1 -5.325 2.069 6.987 6.987 0 0 1 -5.326-2.07 1.749 1.749 0 1 0 -2.7 2.224 10.37 10.37 0 0 0 8.026 3.346 10.371 10.371 0 0 0 8.025-3.344 1.75 1.75 0 1 0 -2.7-2.225z"/></g><path d="m89.7 39.188a6.058 6.058 0 0 0 -.678.052v1.328a22.226 22.226 0 0 1 -.5 4.674l-1.51 6.891-.021.1a6.732 6.732 0 0 0 2.709.578 6.81 6.81 0 0 0 0-13.619z" fill="#fec478"/><path d="m38.05 39.188a6.9 6.9 0 0 1 .926.07v1.307a21.983 21.983 0 0 0 .307 3.641 22.208 22.208 0 0 1 -.3-3.638v-8.968a64 64 0 0 0 48.393-7.771l1.651-1.018v10.751c0 6.168-.088 8.706-.261 10.219a21.776 21.776 0 0 0 .261-3.213v-1.328a6.058 6.058 0 0 1 .678-.052 6.8 6.8 0 0 1 5.675 3.05v-24.491a16 16 0 0 0 -16-16h-30.755a16 16 0 0 0 -16 16v24.153a6.789 6.789 0 0 1 5.425-2.712z" fill="#6e6e6e"/><path d="m8.5 110.833v15.417h15.812v-36.815a22.409 22.409 0 0 0 -15.812 21.398z" fill="#e1e4fb"/><path d="m103.67 89.411c-3.378-1.044-6.94-1.193-10.434-1.5-2.114-.185-4.294-.3-6.439-.538-.885-.126-1.826-.221-2.761-.414v.06a27.258 27.258 0 0 1 -9.222 20.438l-10.814 9.543-10.814-9.542a27.255 27.255 0 0 1 -9.223-20.438 10.334 10.334 0 0 1 -2.1.248c-5.839.673-11.881.44-17.526 2.139l-.021.028v36.815h79.375v-36.815z" fill="#6e6e6e"/><g fill="#e1e4fb"><path d="m103.687 89.435v36.815h15.813v-15.417a22.408 22.408 0 0 0 -15.813-21.398z"/><path d="m48.041 84.73a7.915 7.915 0 0 1 -4.078 2.29 27.26 27.26 0 0 0 5.431 16.32l14.48-9.59z"/><path d="m79.819 84.667-15.945 9.083 14.646 9.7a27.247 27.247 0 0 0 5.516-16.43v-.06a7.215 7.215 0 0 1 -4.217-2.293z"/></g><path d="m49.394 103.34a27.266 27.266 0 0 0 3.792 4.118l10.814 9.542 10.814-9.542a27.2 27.2 0 0 0 3.706-4.009l-14.646-9.7z" fill="#c5c9f7"/><path d="m63.874 93.75-7.789 5.159 5.54 6.466h2.249 2.25l5.54-6.466z" fill="#0d70b2"/><path d="m79.393 112.65h17.46v6h-17.46z" fill="#fedb41"/><path d="m66.375 105.375h-4.75l-4.427 5.623 6.802 6.002-.002-.22.002-.002.002.002-.002.22 6.802-6.002z" fill="#0d70b2"/></g></svg>