<svg id="Capa_1" enable-background="new 0 0 512 512" height="512" viewBox="0 0 512 512" width="512" xmlns="http://www.w3.org/2000/svg"><g><g><path d="m183.359 394.99-2.76 57.9-19.67 51.61h-65.8l-29.95-73-22.17-115.11 12.93 7.24z" fill="#eaf6ff"/><path d="m241.769 323.83c-5 .84-10.43 1.43-16.3 1.72 0 0-13.06.41-28.39 9.86-15.33 9.47-32.93 27.99-41.95 64.25 0 0-10.8-1.46-25.47-6.19-24.63-7.96-60.16-25.16-73.72-60.2l21.64-69.01-34.57-75.44v-129.27h258.21v198.34s6.23 54.88-59.45 65.94z" fill="#ffcebf"/><path d="m125.259 391.98c.25.09.51.18.76.26-.05-.01-.1-.02-.15-.04-.2-.07-.4-.14-.61-.22z" fill="#ffcebf"/><path d="m217.339 326.86c-5.2 1.26-12.43 3.73-20.26 8.55-14.85 9.17-31.82 26.83-41.07 60.87-.53 1.94-.879 3.38-.879 3.38-6.864-1.035-15.851-3.09-25.471-6.19-1.19-.38-2.4-.79-3.64-1.23 2.02.61 4.15-.51 4.8-2.53 14.55-44.66 66.34-58.92 86.52-62.85z" fill="#ffb09e"/><path d="m241.769 323.83c14.495-8.629 23.634-20.492 29.385-31.677 6.497-12.636 9.665-26.721 9.665-40.929v-189.974l20.4-1.7v198.34s6.23 54.88-59.45 65.94z" fill="#ffb09e"/><path d="m351.659 74.38c-6.92 44.01-51.58 51.51-94.31 47.88-37.85-3.22-74.2-15.18-81.44-18.24-13.43-5.68-34.06-16.77-54.44-8.16-3.01 1.28-6.02 2.98-9 5.2-15.697 11.665-10.089 44.902-4.864 65.06 1.181 4.554-4.266 7.863-7.748 4.699l-5.059-4.597c-6.014-5.466-14.886-6.648-21.976-2.676-.038.021-.076.043-.114.064-38.92 21.91-.83 88.2-.83 88.2-39.04 12.45-45.02-27.14-45.02-27.14l-12.5-155.22c0-60.59 60.25-61.95 65.69-61.95h202.51c81.751 0 69.101 66.88 69.101 66.88z" fill="#fed402"/><path d="m225.469 325.55s-3.07.33-8.13 1.31c5-1.21 8.13-1.31 8.13-1.31z" fill="#ffcebf"/><path d="m121.469 95.86c-3.01 1.28-6.02 2.98-9 5.2-15.7 11.67-10.09 44.9-4.86 65.06 1.18 4.55-4.27 7.86-7.75 4.7l-5.06-4.6c-6.01-5.46-14.89-6.65-21.98-2.67-.03.02-.07.04-.11.06-5-20.3-9.56-51.36 5.5-62.55 14.66-10.91 30.04-9.41 43.26-5.2z" fill="#fac600"/><path d="m351.659 74.38c-6.92 44.01-51.58 51.51-94.31 47.88 29.84-3.09 55-15.76 60.05-47.88 0 0 12.65-66.88-69.1-66.88h34.26c81.75 0 69.1 66.88 69.1 66.88z" fill="#fac600"/><path d="m497.839 382.98c0 45.46-36.85 82.31-82.31 82.31-4.96 0-9.81-.44-14.53-1.28-38.53-6.86-67.79-40.53-67.79-81.03s29.26-74.18 67.79-81.04c4.72-.84 9.57-1.28 14.53-1.28 45.46 0 82.31 36.86 82.31 82.32z" fill="#fedf30"/><path d="m497.839 382.98c0 45.46-36.85 82.31-82.31 82.31-4.96 0-9.81-.44-14.53-1.28 38.53-6.87 67.78-40.53 67.78-81.03s-29.25-74.17-67.78-81.04c4.72-.84 9.57-1.28 14.53-1.28 45.46 0 82.31 36.86 82.31 82.32z" fill="#fed402"/><path d="m485.119 212.93v79.42c0 16.51-13.38 29.88-29.88 29.88h-79.43c-16.5 0-29.88-13.37-29.88-29.88v-79.42c0-16.51 13.38-29.88 29.88-29.88h79.43c16.5 0 29.88 13.37 29.88 29.88z" fill="#07b2cd"/><path d="m485.119 212.93v79.42c0 16.51-13.38 29.88-29.88 29.88h-29.06c16.5 0 29.88-13.37 29.88-29.88v-79.42c0-16.51-13.38-29.88-29.88-29.88h29.06c16.5 0 29.88 13.37 29.88 29.88z" fill="#0199b1"/><path d="m309.759 504.5h-148.83l22.43-109.51 78.6 44.03c32.26 15.18 42.91 43.29 46.3 57.22 1.02 4.21 1.5 8.26 1.5 8.26z" fill="#02c7dd"/><path d="m309.759 504.5h-36.661c0-36.5-11.14-65.48-11.14-65.48 32.26 15.18 42.91 43.29 46.3 57.22 1.021 4.21 1.501 8.26 1.501 8.26z" fill="#07b2cd"/><path d="m95.129 504.5h-72.96v-199.79s5.52 3.09 10 5.6l10.84 6.08 33.39 120.51 4.74 17.12z" fill="#02c7dd"/><path d="m95.129 504.5h-29.95l-43.01-155.23v-44.56s5.52 3.09 10 5.6l10.84 6.08 33.39 120.51 4.74 17.12z" fill="#07b2cd"/></g><g><path d="m232.457 268.383c-2.493 2.493-5.808 3.866-9.334 3.866-7.278 0-13.2-5.921-13.2-13.2 0-4.142-3.357-7.5-7.5-7.5s-7.5 3.358-7.5 7.5c0 15.55 12.65 28.2 28.2 28.2 7.533 0 14.614-2.933 19.941-8.26 2.929-2.929 2.929-7.678 0-10.606-2.929-2.929-7.677-2.929-10.607 0z"/><path d="m254.697 181.616c-3.979 1.149-6.273 5.307-5.123 9.287l10.356 35.847c.948 3.284 3.946 5.42 7.201 5.42.689 0 1.391-.096 2.086-.297 3.979-1.149 6.273-5.307 5.123-9.287l-10.356-35.847c-1.149-3.98-5.308-6.273-9.287-5.123z"/><path d="m265.397 432.349-95.329-53.396c7.407-16.544 17.756-29.011 30.947-37.159 13.997-8.628 26.545-7.973 41.999-10.568 36.664-6.174 69.131-33.431 65.705-73.685v-101.208c0-4.142-3.357-7.5-7.5-7.5s-7.5 3.358-7.5 7.5v101.557c0 32.489-21.165 53.15-53.192 58.543-17.253 2.898-31.765 2.965-47.389 12.595-22.264 13.753-36.183 37.406-43.442 62.025-33.825-7.073-71.406-24.567-85.793-58.114l20.833-66.436c.555-1.77.435-3.683-.338-5.369-10.399-22.691-27.464-49.364-20.375-75.153 2.659-9.672 15.21-23.773 25.732-14.21l5.059 4.597c8.765 7.966 23.02-.671 20.052-12.131-4.82-18.594-13.467-51.689 9.522-61.47 15.309-6.467 31.296.569 44.144 6.223 27.318 12.015 58.608 18.226 88.183 20.742 76.445 6.488 97.855-25.811 102.34-54.097 3.177-17.735-1.453-37.818-12.915-51.741-15.327-18.616-40.584-23.894-63.581-23.894h-202.51c-38.703 0-76.642 28.132-73.166 70.052l12.5 155.22c1.911 24.225 25.268 40.171 48.299 35.394l1.878 4.099-15.443 49.247-28.002-15.688c-4.926-2.882-11.447.547-11.447 6.386v199.79c0 4.142 3.357 7.5 7.5 7.5h213.497c4.143 0 7.5-3.358 7.5-7.5s-3.357-7.5-7.5-7.5h-65.543l18.524-90.447 69.647 39.011c20.89 11.701 36.471 27.672 42.473 51.437h-29.888c-4.143 0-7.5 3.358-7.5 7.5s3.357 7.5 7.5 7.5h38.88c4.332 0 7.838-3.816 7.474-8.133-.169-2.001-4.682-49.176-51.835-71.519zm-218.821-188.557c-9.308-5.729-11.955-18.378-12.269-20.057l-12.447-154.58c.19-52.637 52.244-54.155 58.189-54.155h202.51c34.817 0 67.904 18.679 61.691 58.215-4.429 28.163-27.406 42.375-68.399 42.374-33.514-.003-70.434-6.757-101.277-20.327-13.84-6.09-34.758-15.296-56.04-6.303-28.53 12.134-25.777 44.883-20.248 70.4-19.404-15.151-43.225 2.632-48.727 22.648-6.181 22.485 4.588 50.457 11.223 64.563-5.548.552-10.304-.377-14.206-2.778zm54.256 253.208-14.1-50.891 32.147-34.638v85.529zm12.46-101.559-31.265 33.687-19.204-69.311c13.804 17.049 32.746 28.287 50.469 35.624zm-83.623-77.93 6.946 3.893 48.653 175.596h-55.599zm104.21 179.489v-82.026l29.6 39.704-8.668 42.322zm33.632-62.01-21.983-29.487c5.159 1.115 8.35 1.556 8.596 1.589 3.733.504 7.368-1.945 8.283-5.622.711-2.859 1.501-5.614 2.336-8.306l10.167 5.695z"/><path d="m479.935 320.378c7.768-6.855 12.682-16.874 12.682-28.024v-43.354c0-4.142-3.357-7.5-7.5-7.5s-7.5 3.358-7.5 7.5v43.354c0 12.341-10.04 22.381-22.381 22.381h-79.428c-12.341 0-22.381-10.04-22.381-22.381v-79.428c0-12.341 10.04-22.381 22.381-22.381h79.428c12.341 0 22.381 10.04 22.381 22.381 0 4.142 3.357 7.5 7.5 7.5s7.5-3.358 7.5-7.5c0-20.612-16.769-37.381-37.381-37.381h-79.428c-20.612 0-37.381 16.769-37.381 37.381v79.428c0 11.154 4.917 21.175 12.689 28.03-16.253 16.692-25.408 39.01-25.408 62.596 0 49.521 40.293 89.81 89.82 89.81 49.521 0 89.81-40.289 89.81-89.81.001-23.593-9.153-45.913-25.403-62.602zm-56.912 70.802c3.556 1.706 8.099 4.848 7.258 9.559-.537 3.011-3.216 6.089-7.258 7.665zm-15-22.246c-2.345-1.015-3.819-3.461-3.436-6.131.158-1.104.815-3.438 3.436-5.14zm7.506 88.856c-41.256 0-74.82-33.56-74.82-74.81 0-20.987 8.703-40.768 24.02-54.922 3.502 1.089 7.224 1.677 11.08 1.677h36.509c-2.536 1.203-4.295 3.779-4.295 6.773v5.1c-9.18 2.303-16.905 9.457-18.283 19.064-1.927 13.423 7.511 20.098 18.283 24.548v22.645c-3.619-1.326-6.85-3.421-9.302-6.126-2.783-3.071-7.526-3.301-10.594-.521-3.069 2.781-3.303 7.524-.521 10.594 5.226 5.767 12.493 9.833 20.417 11.631v6.01c0 4.142 3.357 7.5 7.5 7.5s7.5-3.358 7.5-7.5v-5.523c11.281-2.089 20.155-10.081 22.024-20.552 2.652-14.851-9.821-23.694-22.024-28.338v-18.189c4.554 1.543 7.664 4.015 7.792 4.118 3.171 2.635 7.877 2.217 10.533-.943 2.665-3.17 2.256-7.901-.915-10.567-.425-.356-7.367-6.072-17.41-8.115v-4.834c0-2.994-1.758-5.57-4.295-6.773h36.509c3.86 0 7.585-.588 11.09-1.68 15.312 14.15 24.012 33.933 24.012 54.925 0 41.248-33.56 74.808-74.81 74.808z"/><path d="m415.523 286.17c4.143 0 7.5-3.358 7.5-7.5v-21.561h21.561c4.143 0 7.5-3.358 7.5-7.5s-3.357-7.5-7.5-7.5h-21.561v-21.561c0-4.142-3.357-7.5-7.5-7.5s-7.5 3.358-7.5 7.5v21.561h-21.561c-4.143 0-7.5 3.358-7.5 7.5s3.357 7.5 7.5 7.5h21.561v21.561c0 4.142 3.357 7.5 7.5 7.5z"/></g></g></svg>